<?xml version="1.0" encoding="UTF-8" standalone="no"?>
<!-- Created with Inkscape (http://www.inkscape.org/) -->

<svg
   width="48"
   height="48"
   viewBox="0 0 12.7 12.7"
   version="1.1"
   id="svg1"
   xmlns="http://www.w3.org/2000/svg"
   xmlns:svg="http://www.w3.org/2000/svg">
  <defs
     id="defs1" />
  <g
     id="layer1">
    <rect
       x="-0.035408877"
       y="-0.035408877"
       width="12.770818"
       height="12.770818"
       rx="0.31927046"
       ry="0.31927046"
       fill="#474a51"
       fill-opacity="1"
       stroke="#000000"
       stroke-width="0"
       opacity="1"
       id="rect1" />
    <path
       d="m 3.4813124,10.27759 q -0.416661,0 -0.6712041,-0.3271053 Q 2.555565,9.6234213 2.4311273,9.0085625 L 1.612815,4.7784721 Q 1.605275,4.7587961 1.590207,4.7637151 1.575136,4.7686351 1.575136,4.7883101 V 10.117714 H 0.25340696 V 3.9816405 q 0,-0.7451844 0.32430112,-1.1509807 Q 0.90200938,2.42241 1.3884471,2.42241 q 0.9031391,0 1.1972932,1.4387221 l 0.865428,4.1317147 q 0.00754,0.029514 0.022608,0.029514 0.015104,0 0.022639,-0.029514 l 0.84279,-4.1317147 Q 4.4862824,3.1577567 4.7898408,2.7913121 5.0952988,2.42241 5.5666426,2.42241 q 0.4864471,0 0.8069773,0.4082498 0.3205299,0.4057963 0.3205299,1.1509807 V 10.117714 H 5.3818848 V 4.7169873 q 0,-0.019676 -0.016972,-0.029514 -0.015104,-0.00984 -0.022639,0.019676 L 4.5164567,9.0085624 Q 4.4014231,9.6234213 4.1487797,9.9504847 3.8980045,10.27759 3.4813124,10.27759 Z M 7.8517068,10.127585 V 2.5724284 h 2.5095562 q 0.94272,0 1.451807,0.548438 0.510954,0.548434 0.510954,1.5075835 0,0.5730299 -0.224368,0.9960391 -0.224368,0.423011 -0.610884,0.6148383 0.426127,0.1598605 0.691975,0.6099193 0.265846,0.4476054 0.265846,1.1731141 0,0.9763638 -0.509085,1.5420005 -0.509057,0.5632238 -1.451807,0.5632238 z M 9.1885097,5.5851393 h 1.1029993 q 0.30166,0 0.501519,-0.1967482 0.201761,-0.1967487 0.201761,-0.5705713 0,-0.3713633 -0.201761,-0.563191 Q 10.593169,4.0627974 10.291509,4.0627974 H 9.1885097 Z m 0,3.0520597 h 1.2500443 q 0.301691,0 0.501552,-0.2360982 0.201727,-0.2385556 0.201727,-0.6418904 0,-0.4008774 -0.201727,-0.6320565 Q 10.740245,6.8935173 10.438554,6.8935173 H 9.1885097 Z"
       fill-rule="nonzero"
       fill="#8f91fa"
       fill-opacity="1"
       stroke="#ffffff"
       stroke-width="0"
       stroke-linecap="round"
       stroke-linejoin="round"
       opacity="1"
       id="Text MB" />
  </g>
</svg>
