<!-- Created with PixiEditor (https://pixieditor.net) -->
<svg version="1.1" viewBox="0 0 512 512" xmlns="http://www.w3.org/2000/svg">
  <rect x="0" y="0" width="512" height="512" rx="17.920000076293945" ry="17.920000076293945" transform="matrix(1, 0, 0, 1, 0, 0)" fill="#8f91fa" fill-opacity="1" stroke="#8f91fa" stroke-width="0" opacity="1" id="Rectangle" />
  <rect x="22.5" y="22" width="467.5000000000023" height="467.4999999999976" rx="11.6875" ry="11.6875" transform="matrix(1, 0, 0, 1, 0, 0)" fill="#474a51" fill-opacity="1" stroke="#000000" stroke-width="0" opacity="1" id="Rectangle" />
  <path d="M48.3357 477.758Q39.7928 477.758 33.2537 473.619Q26.741 469.453 22.9969 462.07Q19.2791 454.661 19.2791 445.037Q19.2791 435.65 22.7332 428.425Q26.1873 421.174 32.3309 417.087Q38.5008 412.974 46.3846 412.974Q51.8953 412.974 56.4832 414.925Q61.0711 416.85 64.1033 420.753L64.1033 395.15L81.5848 395.15L81.5848 476.15L66.7928 476.15L65.5008 467.739Q59.8846 477.758 48.3357 477.758ZM50.9197 462.439Q56.9842 462.439 60.5438 457.693Q64.1033 452.921 64.1033 444.826Q64.1033 436.731 60.5438 432.038Q56.9842 427.344 50.9197 427.344Q44.5652 427.344 40.8211 432.038Q37.1033 436.731 37.1033 444.826Q37.1033 452.921 40.8211 457.693Q44.5652 462.439 50.9197 462.439ZM122.181 477.758Q112.768 477.758 105.86 473.83Q98.952 469.875 95.1023 462.597Q91.2791 455.294 91.2791 445.379Q91.2791 435.439 95.0496 428.214Q98.8465 420.963 105.702 416.982Q112.557 412.974 121.839 412.974Q131.463 412.974 138.213 417.298Q144.963 421.623 148.364 429.823Q151.765 438.023 151.212 449.572L108.892 449.572Q109.736 456.506 113.401 460.382Q117.093 464.258 122.92 464.258Q127.666 464.258 130.698 461.938Q133.73 459.618 134.469 456.269L150.79 456.269Q149.709 462.966 145.754 467.792Q141.825 472.59 135.761 475.174Q129.722 477.758 122.181 477.758ZM121.944 426.369Q116.671 426.369 113.19 429.77Q109.736 433.171 108.892 438.893L133.941 438.893Q133.519 432.09 129.933 429.243Q126.374 426.369 121.944 426.369ZM185.466 477.758Q180.614 477.758 177.476 474.304Q174.339 470.85 171.201 461.991L154.141 414.583L172.177 414.583L185.466 455.425L198.438 414.583L216.025 414.583L199.519 461.78Q196.382 470.745 193.297 474.252Q190.212 477.758 185.466 477.758ZM251.181 477.758Q241.768 477.758 234.86 473.83Q227.952 469.875 224.102 462.597Q220.279 455.294 220.279 445.379Q220.279 435.439 224.05 428.214Q227.846 420.963 234.702 416.982Q241.557 412.974 250.839 412.974Q260.463 412.974 267.213 417.298Q273.963 421.623 277.364 429.823Q280.765 438.023 280.212 449.572L237.892 449.572Q238.736 456.506 242.401 460.382Q246.093 464.258 251.92 464.258Q256.666 464.258 259.698 461.938Q262.73 459.618 263.469 456.269L279.79 456.269Q278.709 462.966 274.754 467.792Q270.825 472.59 264.761 475.174Q258.722 477.758 251.181 477.758ZM250.944 426.369Q245.671 426.369 242.19 429.77Q238.736 433.171 237.892 438.893L262.941 438.893Q262.519 432.09 258.933 429.243Q255.374 426.369 250.944 426.369ZM306.16 476.15Q298.593 476.15 294.005 471.562Q289.417 466.974 289.417 459.407L289.417 395.15L306.898 395.15L306.898 456.375Q306.898 458.431 308.19 459.75Q309.509 461.042 311.433 461.042L314.782 461.042L314.782 476.15L306.16 476.15ZM356.814 477.758Q347.638 477.758 340.493 473.671Q333.374 469.558 329.313 462.281Q325.279 454.977 325.279 445.59Q325.279 435.966 329.313 428.636Q333.374 421.28 340.493 417.14Q347.638 412.974 356.814 412.974Q366.096 412.974 373.162 417.14Q380.255 421.28 384.289 428.636Q388.349 435.966 388.349 445.59Q388.349 454.977 384.289 462.281Q380.255 469.558 373.162 473.671Q366.096 477.758 356.814 477.758ZM356.814 462.65Q362.852 462.65 366.676 457.904Q370.525 453.158 370.525 445.59Q370.525 437.812 366.676 432.961Q362.852 428.083 356.814 428.083Q350.776 428.083 346.927 432.961Q343.103 437.812 343.103 445.59Q343.103 453.158 346.927 457.904Q350.776 462.65 356.814 462.65ZM398.417 495.583L398.417 414.583L413.209 414.583L414.606 423.653Q417.744 418.485 422.806 415.743Q427.895 412.974 433.722 412.974Q441.949 412.974 447.987 417.087Q454.025 421.174 457.374 428.425Q460.722 435.65 460.722 445.142Q460.722 453.896 458.244 460.066Q455.765 466.21 451.652 470.165Q447.565 474.093 442.582 475.939Q437.625 477.758 432.747 477.758Q427.684 477.758 423.307 475.834Q418.93 473.882 415.898 470.112L415.898 495.583L398.417 495.583ZM429.082 463.415Q435.463 463.415 439.18 458.721Q442.898 454.002 442.898 445.907Q442.898 437.812 439.18 433.066Q435.463 428.294 429.082 428.294Q423.044 428.294 419.458 433.066Q415.898 437.812 415.898 445.907Q415.898 454.002 419.458 458.721Q423.044 463.415 429.082 463.415ZM498.181 477.758Q488.768 477.758 481.86 473.83Q474.952 469.875 471.102 462.597Q467.279 455.294 467.279 445.379Q467.279 435.439 471.05 428.214Q474.846 420.963 481.702 416.982Q488.557 412.974 497.839 412.974Q507.463 412.974 514.213 417.298Q520.963 421.623 524.364 429.823Q527.765 438.023 527.212 449.572L484.892 449.572Q485.736 456.506 489.401 460.382Q493.093 464.258 498.92 464.258Q503.666 464.258 506.698 461.938Q509.73 459.618 510.469 456.269L526.79 456.269Q525.709 462.966 521.754 467.792Q517.825 472.59 511.761 475.174Q505.722 477.758 498.181 477.758ZM497.944 426.369Q492.671 426.369 489.19 429.77Q485.736 433.171 484.892 438.893L509.941 438.893Q509.519 432.09 505.933 429.243Q502.374 426.369 497.944 426.369ZM536.417 476.15L536.417 440.502Q536.417 427.239 543.589 420.12Q550.787 412.974 564.181 412.974Q565.579 412.974 568.585 413.132Q571.617 413.291 574.649 413.95L574.649 428.953Q572.593 428.636 570.747 428.373Q568.928 428.083 566.66 428.083Q563.311 428.083 560.385 429.058Q557.484 430.034 555.691 432.75Q553.898 435.439 553.898 440.607L553.898 476.15L536.417 476.15Z" fill-rule="nonzero" transform="matrix(0.7217122, 0, 0, 0.7217122, 41.77777, 92.10941)" fill="#8f91fa" fill-opacity="1" stroke="#ffffff" stroke-width="0" stroke-linecap="round" stroke-linejoin="round" opacity="1" id="Text D" />
  <path d="M176.235 119.673Q162.855 119.673 154.681 111.62Q146.507 103.568 142.511 88.4308L116.233 -15.7098Q115.991 -16.1942 115.507 -16.0731Q115.023 -15.952 115.023 -15.4676L115.023 115.737L72.5791 115.737L72.5791 -35.327Q72.5791 -53.6727 82.9932 -63.663Q93.4073 -73.7137 109.028 -73.7137Q138.03 -73.7137 147.476 -38.2938L175.267 63.4249Q175.509 64.1515 175.993 64.1515Q176.478 64.1515 176.72 63.4249L203.784 -38.2938Q208.507 -55.6102 218.255 -64.6317Q228.064 -73.7137 243.2 -73.7137Q258.821 -73.7137 269.114 -63.663Q279.407 -53.6727 279.407 -35.327L279.407 115.737L237.267 115.737L237.267 -17.2235Q237.267 -17.7079 236.722 -17.9501Q236.237 -18.1923 235.995 -17.4657L209.476 88.4308Q205.782 103.568 197.669 111.62Q189.616 119.673 176.235 119.673ZM316.579 115.98L316.579 -70.0204L397.167 -70.0204Q427.44 -70.0204 443.788 -56.5184Q460.196 -43.0165 460.196 -19.4032Q460.196 -5.29577 452.991 5.11829Q445.786 15.5324 433.374 20.255Q447.058 24.1906 455.595 35.2706Q464.132 46.2902 464.132 64.1515Q464.132 88.1886 447.784 102.114Q431.437 115.98 401.163 115.98L316.579 115.98ZM359.507 4.14954L394.927 4.14954Q404.614 4.14954 411.032 -0.694206Q417.511 -5.53796 417.511 -14.7411Q417.511 -23.8837 411.032 -28.6063Q404.614 -33.329 394.927 -33.329L359.507 -33.329L359.507 4.14954ZM359.507 79.2882L399.649 79.2882Q409.337 79.2882 415.755 73.4757Q422.233 67.6027 422.233 57.673Q422.233 47.8038 415.755 42.1124Q409.337 36.3605 399.649 36.3605L359.507 36.3605L359.507 79.2882Z" fill-rule="nonzero" transform="matrix(1.0124495, 0, 0, 1.11961, -15.572849, 145.40877)" fill="#8f91fa" fill-opacity="1" stroke="#ffffff" stroke-width="0" stroke-linecap="round" stroke-linejoin="round" opacity="1" id="Text MB" />
  <path d="M129.156 411.206Q114.438 411.206 106 404.363Q97.5625 397.519 97.5625 385.613L115.844 385.613Q116.875 391.113 120.312 393.675Q123.781 396.238 128.906 396.238Q133.375 396.238 136.312 394.456Q139.281 392.675 139.281 389.331Q139.281 386.769 137.031 385.488Q134.781 384.206 128.656 382.675Q124.312 381.644 121.031 380.831Q117.781 379.988 114.062 378.706Q109.719 377.175 106.062 375.019Q102.406 372.831 100.156 369.05Q97.9375 365.269 97.9375 359.113Q97.9375 352.206 100.625 347.488Q103.312 342.738 107.781 339.863Q112.281 336.988 117.594 335.706Q122.906 334.425 128 334.425Q136.594 334.425 143.25 337.425Q149.906 340.425 153.75 345.738Q157.594 351.05 157.594 358.113L138.125 358.113Q138.125 354.269 134.719 351.706Q131.344 349.144 126.719 349.144Q123.531 349.144 120.312 350.675Q117.125 352.206 117.125 355.675Q117.125 357.988 119.156 359.581Q121.219 361.175 127.125 362.831Q129.281 363.363 132.281 364.144Q135.312 364.894 138.25 365.613Q141.188 366.3 143.125 366.925Q151.438 369.363 155.219 374.363Q159 379.363 159 386.894Q159 398.425 151.125 404.831Q143.25 411.206 129.156 411.206ZM203.969 411.206Q193.094 411.206 184.625 406.363Q176.188 401.488 171.375 392.863Q166.594 384.206 166.594 373.081Q166.594 361.675 171.375 352.988Q176.188 344.269 184.625 339.363Q193.094 334.425 203.969 334.425Q214.969 334.425 223.344 339.363Q231.75 344.269 236.531 352.988Q241.344 361.675 241.344 373.081Q241.344 384.206 236.531 392.863Q231.75 401.488 223.344 406.363Q214.969 411.206 203.969 411.206ZM203.969 393.3Q211.125 393.3 215.656 387.675Q220.219 382.05 220.219 373.081Q220.219 363.863 215.656 358.113Q211.125 352.331 203.969 352.331Q196.812 352.331 192.25 358.113Q187.719 363.863 187.719 373.081Q187.719 382.05 192.25 387.675Q196.812 393.3 203.969 393.3ZM261.75 409.3L261.75 352.988L249.719 352.988L249.719 336.331L261.75 336.331L261.75 330.581Q261.75 320.863 267.125 315.175Q272.5 309.456 281.594 309.456L300.406 309.456L300.406 327.394L286.844 327.394Q284.406 327.394 282.938 328.8Q281.469 330.206 281.469 332.769L281.469 336.331L297.344 336.331L297.344 352.988L281.469 352.988L281.469 409.3L261.75 409.3ZM337.594 409.3Q328.625 409.3 323.188 403.863Q317.75 398.425 317.75 389.456L317.75 352.988L305.719 352.988L305.719 336.331L317.75 336.331L317.75 317.144L338.5 317.144L338.5 336.331L353.344 336.331L353.344 352.988L338.5 352.988L338.5 385.863Q338.5 388.3 340.031 389.863Q341.562 391.394 343.875 391.394L355.531 391.394L355.531 409.3L337.594 409.3ZM390.281 411.206Q384.75 411.206 381.562 407.956Q378.375 404.706 375.812 396.238L358 336.331L379.25 336.331L391.031 383.831L400.375 347.488Q402.188 340.3 405.062 337.363Q407.938 334.425 412.938 334.425Q417.781 334.425 420.656 337.363Q423.562 340.3 425.344 347.488L434.938 384.206L447.094 336.331L467.594 336.331L450.031 396.238Q447.625 404.706 444.469 407.956Q441.344 411.206 435.719 411.206Q429.812 411.206 426.688 407.956Q423.562 404.706 421.125 396.363L412.781 367.175L404.469 396.363Q402.031 404.706 398.969 407.956Q395.906 411.206 390.281 411.206ZM505.75 411.206Q496.031 411.206 488.531 406.238Q481.031 401.238 476.812 392.425Q472.594 383.581 472.594 372.175Q472.594 361.05 476.688 352.55Q480.781 344.019 487.938 339.238Q495.125 334.425 504.469 334.425Q511.625 334.425 517.188 337.175Q522.781 339.925 526.219 344.8L527.375 336.331L544.531 336.331L544.531 409.3L527.375 409.3L526.219 399.706Q522.906 405.081 517.531 408.144Q512.156 411.206 505.75 411.206ZM509.469 393.05Q516.625 393.05 520.844 387.425Q525.062 381.769 525.062 372.175Q525.062 362.581 520.844 357.019Q516.625 351.456 509.469 351.456Q502.156 351.456 497.938 357.019Q493.719 362.581 493.719 372.175Q493.719 381.769 497.938 387.425Q502.156 393.05 509.469 393.05ZM560.312 409.3L560.312 367.05Q560.312 351.331 568.812 342.894Q577.344 334.425 593.219 334.425Q594.875 334.425 598.438 334.613Q602.031 334.8 605.625 335.581L605.625 353.363Q603.188 352.988 601 352.675Q598.844 352.331 596.156 352.331Q592.188 352.331 588.719 353.488Q585.281 354.644 583.156 357.863Q581.031 361.05 581.031 367.175L581.031 409.3L560.312 409.3ZM649.219 411.206Q638.062 411.206 629.875 406.55Q621.688 401.863 617.125 393.238Q612.594 384.581 612.594 372.831Q612.594 361.05 617.062 352.488Q621.562 343.894 629.688 339.175Q637.812 334.425 648.812 334.425Q660.219 334.425 668.219 339.55Q676.219 344.675 680.25 354.394Q684.281 364.113 683.625 377.8L633.469 377.8Q634.469 386.019 638.812 390.613Q643.188 395.206 650.094 395.206Q655.719 395.206 659.312 392.456Q662.906 389.706 663.781 385.738L683.125 385.738Q681.844 393.675 677.156 399.394Q672.5 405.081 665.312 408.144Q658.156 411.206 649.219 411.206ZM648.938 350.3Q642.688 350.3 638.562 354.331Q634.469 358.363 633.469 365.144L663.156 365.144Q662.656 357.081 658.406 353.706Q654.188 350.3 648.938 350.3Z" fill-rule="nonzero" transform="matrix(0.6761162, 0, 0, 0.66857976, -8.361465, 87.67294)" fill="#8f91fa" fill-opacity="1" stroke="#8f91fa" stroke-width="0" stroke-linecap="round" stroke-linejoin="round" opacity="1" id="Text S" />
</svg>